<?xml version="1.0" encoding="UTF-8"?>
<svg width="200" height="48" viewBox="0 0 200 48" fill="none" xmlns="http://www.w3.org/2000/svg">
  <path d="M24 0C37.2548 0 48 10.7452 48 24C48 37.2548 37.2548 48 24 48C10.7452 48 0 37.2548 0 24C0 10.7452 10.7452 0 24 0Z" fill="#007BFF"/>
  <path d="M24 8C32.8366 8 40 15.1634 40 24C40 32.8366 32.8366 40 24 40C15.1634 40 8 32.8366 8 24C8 15.1634 15.1634 8 24 8Z" fill="white"/>
  <path d="M24 16C28.4183 16 32 19.5817 32 24C32 28.4183 28.4183 32 24 32C19.5817 32 16 28.4183 16 24C16 19.5817 19.5817 16 24 16Z" fill="#007BFF"/>
  <text x="60" y="32" font-family="Arial" font-size="24" font-weight="bold" fill="#2C3E50">Oura Dashboard</text>
</svg> 